<svg xmlns="http://www.w3.org/2000/svg" style="background:0 0" width="657.9" height="120.8" preserveAspectRatio="xMidYMid" viewBox="-78.938 14.6 657.875 120.8"><defs><linearGradient id="editing-rainbow-gradient" x1="0" x2="1" y1=".5" y2=".5" gradientUnits="objectBoundingBox"><stop offset="0" stop-color="#ff0a0a"/><stop offset=".2" stop-color="#f90"/><stop offset=".3" stop-color="#ff4"/><stop offset=".5" stop-color="#9f0"/><stop offset=".7" stop-color="#09f"/><stop offset=".8" stop-color="#00f"/><stop offset="1" stop-color="#90f"/></linearGradient><filter id="editing-rainbow" width="300%" height="300%" x="-100%" y="-100%"><feMorphology in="SourceGraphic" operator="dilate" radius="1,2" result="dilate"/><feColorMatrix in="dilate" result="color" type="matrix" values="0.7 0 0 0 0 0 0.7 0 0 0 0 0 0.7 0 0 0 0 0 1 0"/><feOffset dy="2" result="offset"/><feGaussianBlur stdDeviation="3"/><feOffset dy="3"/><feColorMatrix result="blur" type="matrix" values="0.7 0 0 0 0 0 0.7 0 0 0 0 0 0.7 0 0 0 0 0 1 0"/><feMerge><feMergeNode in="blur"/><feMergeNode in="offset"/><feMergeNode in="SourceGraphic"/></feMerge></filter></defs><g filter="url(#editing-rainbow)"><g><path fill="url(#editing-rainbow-gradient)" d="M 0 135.3 L -13.9 135.3 L -5.8 93.1 L 8.3 93.1 L 0 135.3 Z M 55.8 136.6 L 55.8 136.6 L 55.8 136.6 Q 48 136.6 48 130.6 L 48 130.6 L 48 130.6 Q 48 128 49.2 122.9 L 49.2 122.9 L 49.2 122.9 Q 50.3 117.8 50.7 115.7 L 50.7 115.7 L 50.7 115.7 Q 51.6 111.1 51.6 109.6 L 51.6 109.6 L 51.6 109.6 Q 51.6 106.3 49.1 106.3 L 49.1 106.3 L 49.1 106.3 Q 47.5 106.3 46 108.5 L 46 108.5 L 46 108.5 Q 44.5 110.7 43.8 115.2 L 43.8 115.2 L 39.8 135.3 L 27.3 136.6 L 30.8 119.2 L 30.8 119.2 Q 31.3 116.3 31.8 113 L 31.8 113 L 31.8 113 Q 32.4 109.8 32.4 109.3 L 32.4 109.3 L 32.4 109.3 Q 32.4 106.3 30.2 106.3 L 30.2 106.3 L 30.2 106.3 Q 28.7 106.3 27.1 108.5 L 27.1 108.5 L 27.1 108.5 Q 25.5 110.7 24.6 115.2 L 24.6 115.2 L 20.7 135.3 L 8.1 136.6 L 14.8 102.7 L 25.3 101.4 L 24.2 107.9 L 24.2 107.9 Q 25.8 104.4 28.9 102.9 L 28.9 102.9 L 28.9 102.9 Q 32 101.4 36.8 101.4 L 36.8 101.4 L 36.8 101.4 Q 39.5 101.4 41.3 102.7 L 41.3 102.7 L 41.3 102.7 Q 43.1 104.1 43.7 106.3 L 43.7 106.3 L 43.7 106.3 Q 44.8 104 47.6 102.7 L 47.6 102.7 L 47.6 102.7 Q 50.3 101.4 53.8 101.4 L 53.8 101.4 L 53.8 101.4 Q 57.2 101.4 58.9 102.1 L 58.9 102.1 L 58.9 102.1 Q 60.6 102.9 61.6 104.1 L 61.6 104.1 L 61.6 104.1 Q 63.3 106.3 63.3 110.4 L 63.3 110.4 L 63.3 110.4 Q 63.3 114.5 61.6 122.8 L 61.6 122.8 L 61.6 122.8 Q 60.7 126.9 60.7 128.4 L 60.7 128.4 L 60.7 128.4 Q 60.7 129.9 61.6 130.8 L 61.6 130.8 L 61.6 130.8 Q 62.4 131.7 63.7 131.9 L 63.7 131.9 L 63.7 131.9 Q 63.1 134 60.9 135.3 L 60.9 135.3 L 60.9 135.3 Q 58.7 136.6 55.8 136.6 Z M 71.4 133.4 L 71.4 133.4 L 71.4 133.4 Q 69.9 131.7 69.3 129.1 L 69.3 129.1 L 69.3 129.1 Q 68.6 126.5 68.6 122.2 L 68.6 122.2 L 68.6 122.2 Q 68.6 117.9 70.1 114 L 70.1 114 L 70.1 114 Q 71.5 110.1 74.2 107.3 L 74.2 107.3 L 74.2 107.3 Q 79.7 101.4 88.8 101.4 L 88.8 101.4 L 88.8 101.4 Q 92.1 101.4 94.4 102.5 L 94.4 102.5 L 105.4 101.4 L 100.6 126.4 L 100.6 126.4 Q 100.5 127.1 100.5 128.5 L 100.5 128.5 L 100.5 128.5 Q 100.5 129.9 101.3 130.8 L 101.3 130.8 L 101.3 130.8 Q 102.2 131.7 103.5 131.9 L 103.5 131.9 L 103.5 131.9 Q 102.8 134 100.5 135.3 L 100.5 135.3 L 100.5 135.3 Q 98.2 136.6 95.5 136.6 L 95.5 136.6 L 95.5 136.6 Q 92.9 136.6 91.1 135.6 L 91.1 135.6 L 91.1 135.6 Q 89.4 134.6 88.9 132.9 L 88.9 132.9 L 88.9 132.9 Q 87.8 134.5 85.7 135.6 L 85.7 135.6 L 85.7 135.6 Q 83.5 136.6 80.6 136.6 L 80.6 136.6 L 80.6 136.6 Q 77.7 136.6 75.3 135.8 L 75.3 135.8 L 75.3 135.8 Q 72.9 135.1 71.4 133.4 Z M 84.9 107.4 L 84.9 107.4 L 84.9 107.4 Q 84.2 108.6 83.6 110.5 L 83.6 110.5 L 83.6 110.5 Q 82.9 112.5 81.9 117.7 L 81.9 117.7 L 81.9 117.7 Q 80.8 122.9 80.8 126.6 L 80.8 126.6 L 80.8 126.6 Q 80.8 130.3 81.4 131.4 L 81.4 131.4 L 81.4 131.4 Q 82 132.5 83 132.5 L 83 132.5 L 83 132.5 Q 85 132.5 86.5 130.5 L 86.5 130.5 L 86.5 130.5 Q 88 128.6 88.6 125.1 L 88.6 125.1 L 92 106.4 L 92 106.4 Q 90.7 105.2 89.1 105.2 L 89.1 105.2 L 89.1 105.2 Q 87.5 105.2 86.6 105.7 L 86.6 105.7 L 86.6 105.7 Q 85.7 106.3 84.9 107.4 Z M 113.1 108.6 L 113.1 108.6 L 113.1 108.6 Q 115.3 105.5 118.6 103.4 L 118.6 103.4 L 118.6 103.4 Q 121.9 101.4 125.9 101.4 L 125.9 101.4 L 125.9 101.4 Q 130 101.4 131.9 102.7 L 131.9 102.7 L 144.4 101.4 L 140.1 126 L 140.1 126 Q 137.8 138.5 133.1 143.4 L 133.1 143.4 L 133.1 143.4 Q 128.6 148.1 119.7 148.1 L 119.7 148.1 L 119.7 148.1 Q 113 148.1 109.2 146 L 109.2 146 L 109.2 146 Q 105.3 143.9 105.3 140.4 L 105.3 140.4 L 105.3 140.4 Q 105.3 137.7 107.3 136.2 L 107.3 136.2 L 107.3 136.2 Q 109.3 134.7 112.4 134.7 L 112.4 134.7 L 112.4 134.7 Q 115 134.7 117.1 136 L 117.1 136 L 117.1 136 Q 118.3 136.6 118.9 137.5 L 118.9 137.5 L 118.9 137.5 Q 117.4 138.8 117.4 140.9 L 117.4 140.9 L 117.4 140.9 Q 117.4 143.6 120 143.6 L 120 143.6 L 120 143.6 Q 124.3 143.6 126.7 133.5 L 126.7 133.5 L 126.7 133.5 Q 127.4 130.8 128 128 L 128 128 L 128 128 Q 125.1 131.5 118.6 131.5 L 118.6 131.5 L 118.6 131.5 Q 114 131.5 111.4 129.4 L 111.4 129.4 L 111.4 129.4 Q 108.8 127.2 108.8 122.1 L 108.8 122.1 L 108.8 122.1 Q 108.8 118.9 109.9 115.3 L 109.9 115.3 L 109.9 115.3 Q 111 111.6 113.1 108.6 Z M 121.4 122.3 L 121.4 122.3 L 121.4 122.3 Q 121.4 126.6 123.7 126.6 L 123.7 126.6 L 123.7 126.6 Q 125.2 126.6 126.7 124.9 L 126.7 124.9 L 126.7 124.9 Q 127.8 123.6 128.3 121.6 L 128.3 121.6 L 131.6 105.2 L 131.6 105.2 Q 131.2 105.1 130.9 105 L 130.9 105 L 130.9 105 Q 130.3 104.7 129.4 104.7 L 129.4 104.7 L 129.4 104.7 Q 125.5 104.7 123.2 111.1 L 123.2 111.1 L 123.2 111.1 Q 121.4 116.1 121.4 122.3 Z M 172.8 124.5 L 172.8 124.5 L 172.8 124.5 Q 174.4 125.6 174.4 128 L 174.4 128 L 174.4 128 Q 174.4 130.4 173.2 131.9 L 173.2 131.9 L 173.2 131.9 Q 172 133.5 170 134.5 L 170 134.5 L 170 134.5 Q 165.9 136.6 161.5 136.6 L 161.5 136.6 L 161.5 136.6 Q 157.1 136.6 154.5 135.6 L 154.5 135.6 L 154.5 135.6 Q 151.9 134.7 150.2 132.9 L 150.2 132.9 L 150.2 132.9 Q 146.8 129.5 146.8 123.3 L 146.8 123.3 L 146.8 123.3 Q 146.8 113.6 152 107.7 L 152 107.7 L 152 107.7 Q 157.7 101.4 167.5 101.4 L 167.5 101.4 L 167.5 101.4 Q 173.5 101.4 176.6 104 L 176.6 104 L 176.6 104 Q 178.8 105.9 178.8 109 L 178.8 109 L 178.8 109 Q 178.8 120.3 159.3 120.3 L 159.3 120.3 L 159.3 120.3 Q 159.1 121.9 159.1 123.3 L 159.1 123.3 L 159.1 123.3 Q 159.1 126.3 160.4 127.4 L 160.4 127.4 L 160.4 127.4 Q 161.7 128.5 164.1 128.5 L 164.1 128.5 L 164.1 128.5 Q 166.6 128.5 169.2 127.4 L 169.2 127.4 L 169.2 127.4 Q 171.8 126.3 172.8 124.5 Z M 159.8 117.5 L 159.8 117.5 L 159.8 117.5 Q 164.3 117.5 167 114.7 L 167 114.7 L 167 114.7 Q 169.6 112 169.6 107.7 L 169.6 107.7 L 169.6 107.7 Q 169.6 106.3 169 105.5 L 169 105.5 L 169 105.5 Q 168.5 104.7 167.4 104.7 L 167.4 104.7 L 167.4 104.7 Q 166.3 104.7 165.4 105.1 L 165.4 105.1 L 165.4 105.1 Q 164.5 105.5 163.5 106.9 L 163.5 106.9 L 163.5 106.9 Q 161.1 110.1 159.8 117.5 Z M 200.1 112.9 L 200.1 112.9 L 200.1 112.9 Q 201 110.5 201 108.4 L 201 108.4 L 201 108.4 Q 201 104.7 197.9 104.7 L 197.9 104.7 L 197.9 104.7 Q 196.3 104.7 195 106.1 L 195 106.1 L 195 106.1 Q 193.7 107.5 193.7 109.3 L 193.7 109.3 L 193.7 109.3 Q 193.7 110.6 194.7 111.6 L 194.7 111.6 L 194.7 111.6 Q 196.2 113 200 115.3 L 200 115.3 L 200 115.3 Q 203.8 117.7 205.2 119.5 L 205.2 119.5 L 205.2 119.5 Q 206.6 121.4 206.6 124 L 206.6 124 L 206.6 124 Q 206.6 126.6 205.4 129 L 205.4 129 L 205.4 129 Q 204.1 131.3 201.9 133 L 201.9 133 L 201.9 133 Q 197.1 136.6 189.4 136.6 L 189.4 136.6 L 189.4 136.6 Q 185.3 136.6 182.1 134.4 L 182.1 134.4 L 182.1 134.4 Q 178.9 132.3 178.9 129.8 L 178.9 129.8 L 178.9 129.8 Q 178.9 127.3 180.7 125.8 L 180.7 125.8 L 180.7 125.8 Q 182.5 124.4 185.2 124.4 L 185.2 124.4 L 185.2 124.4 Q 187.9 124.4 189.5 125.4 L 189.5 125.4 L 189.5 125.4 Q 188.7 127.5 188.7 128.9 L 188.7 128.9 L 188.7 128.9 Q 188.7 133.1 192.3 133.1 L 192.3 133.1 L 192.3 133.1 Q 193.8 133.1 194.9 132.2 L 194.9 132.2 L 194.9 132.2 Q 195.9 131.2 195.9 129.6 L 195.9 129.6 L 195.9 129.6 Q 195.9 126.3 190.4 122.8 L 190.4 122.8 L 190.4 122.8 Q 185.9 119.9 184.9 118.7 L 184.9 118.7 L 184.9 118.7 Q 183.1 116.7 183.1 114.1 L 183.1 114.1 L 183.1 114.1 Q 183.1 111.6 184.4 109.1 L 184.4 109.1 L 184.4 109.1 Q 185.6 106.7 187.8 105 L 187.8 105 L 187.8 105 Q 192.5 101.4 200.6 101.4 L 200.6 101.4 L 200.6 101.4 Q 204.8 101.4 207.2 103.1 L 207.2 103.1 L 207.2 103.1 Q 209.7 104.7 209.7 107.5 L 209.7 107.5 L 209.7 107.5 Q 209.7 110.4 208 112 L 208 112 L 208 112 Q 206.3 113.6 203.2 113.6 L 203.2 113.6 L 203.2 113.6 Q 201.1 113.6 200.1 112.9 Z M 251.2 114.7 L 264.1 113.6 L 264.1 113.6 Q 259.5 123.7 259.5 135.4 L 259.5 135.4 L 259.5 135.4 Q 257.8 136.6 255.2 136.6 L 255.2 136.6 L 255.2 136.6 Q 252.7 136.6 251.1 135.4 L 251.1 135.4 L 251.1 135.4 Q 249.5 134.2 249.2 133 L 249.2 133 L 249.2 133 Q 247.6 134.7 245 135.6 L 245 135.6 L 245 135.6 Q 242.4 136.6 239.7 136.6 L 239.7 136.6 L 239.7 136.6 Q 236.9 136.6 234.5 135.7 L 234.5 135.7 L 234.5 135.7 Q 232.1 134.8 230.2 132.8 L 230.2 132.8 L 230.2 132.8 Q 226.2 128.5 226.2 120.2 L 226.2 120.2 L 226.2 120.2 Q 226.2 107.4 233 99.7 L 233 99.7 L 233 99.7 Q 240 91.8 252.5 91.8 L 252.5 91.8 L 252.5 91.8 Q 261.2 91.8 264.2 96.3 L 264.2 96.3 L 264.2 96.3 Q 265.2 97.7 265.2 99.4 L 265.2 99.4 L 265.2 99.4 Q 265.2 101.1 264.5 102.5 L 264.5 102.5 L 264.5 102.5 Q 263.7 104 262.6 105.1 L 262.6 105.1 L 262.6 105.1 Q 259.8 107.7 256.4 107.7 L 256.4 107.7 L 256.4 107.7 Q 255.1 107.7 253.8 107.2 L 253.8 107.2 L 253.8 107.2 Q 254.1 105.3 254.1 103.1 L 254.1 103.1 L 254.1 103.1 Q 254.1 100.8 253.9 99.8 L 253.9 99.8 L 253.9 99.8 Q 253.7 98.8 253.4 97.9 L 253.4 97.9 L 253.4 97.9 Q 252.5 96.2 250.7 96.2 L 250.7 96.2 L 250.7 96.2 Q 248.9 96.2 246.9 98.2 L 246.9 98.2 L 246.9 98.2 Q 244.8 100.1 243.2 103.3 L 243.2 103.3 L 243.2 103.3 Q 239.7 110.5 239.7 119.1 L 239.7 119.1 L 239.7 119.1 Q 239.7 123.1 241.3 125.9 L 241.3 125.9 L 241.3 125.9 Q 242.9 129 245.9 129 L 245.9 129 L 245.9 129 Q 246.9 129 247.8 128.5 L 247.8 128.5 L 247.8 128.5 Q 248.7 128 249.1 127.6 L 249.1 127.6 L 251.2 114.7 Z M 270 133.4 L 270 133.4 L 270 133.4 Q 268.5 131.7 267.8 129.1 L 267.8 129.1 L 267.8 129.1 Q 267.2 126.5 267.2 122.2 L 267.2 122.2 L 267.2 122.2 Q 267.2 117.9 268.6 114 L 268.6 114 L 268.6 114 Q 270.1 110.1 272.8 107.3 L 272.8 107.3 L 272.8 107.3 Q 278.3 101.4 287.4 101.4 L 287.4 101.4 L 287.4 101.4 Q 290.7 101.4 293 102.5 L 293 102.5 L 304 101.4 L 299.2 126.4 L 299.2 126.4 Q 299 127.1 299 128.5 L 299 128.5 L 299 128.5 Q 299 129.9 299.9 130.8 L 299.9 130.8 L 299.9 130.8 Q 300.8 131.7 302.1 131.9 L 302.1 131.9 L 302.1 131.9 Q 301.4 134 299.1 135.3 L 299.1 135.3 L 299.1 135.3 Q 296.7 136.6 294.1 136.6 L 294.1 136.6 L 294.1 136.6 Q 291.5 136.6 289.7 135.6 L 289.7 135.6 L 289.7 135.6 Q 288 134.6 287.5 132.9 L 287.5 132.9 L 287.5 132.9 Q 286.4 134.5 284.3 135.6 L 284.3 135.6 L 284.3 135.6 Q 282.1 136.6 279.2 136.6 L 279.2 136.6 L 279.2 136.6 Q 276.3 136.6 273.9 135.8 L 273.9 135.8 L 273.9 135.8 Q 271.5 135.1 270 133.4 Z M 283.5 107.4 L 283.5 107.4 L 283.5 107.4 Q 282.8 108.6 282.2 110.5 L 282.2 110.5 L 282.2 110.5 Q 281.5 112.5 280.5 117.7 L 280.5 117.7 L 280.5 117.7 Q 279.4 122.9 279.4 126.6 L 279.4 126.6 L 279.4 126.6 Q 279.4 130.3 280 131.4 L 280 131.4 L 280 131.4 Q 280.6 132.5 281.6 132.5 L 281.6 132.5 L 281.6 132.5 Q 283.6 132.5 285.1 130.5 L 285.1 130.5 L 285.1 130.5 Q 286.6 128.6 287.2 125.1 L 287.2 125.1 L 290.6 106.4 L 290.6 106.4 Q 289.3 105.2 287.7 105.2 L 287.7 105.2 L 287.7 105.2 Q 286.1 105.2 285.2 105.7 L 285.2 105.7 L 285.2 105.7 Q 284.3 106.3 283.5 107.4 Z M 322.7 131.8 L 322.7 131.8 L 322.7 131.8 Q 320.7 136.6 314.4 136.6 L 314.4 136.6 L 314.4 136.6 Q 311.2 136.6 309.2 134.4 L 309.2 134.4 L 309.2 134.4 Q 307.5 132.5 307.5 130.4 L 307.5 130.4 L 307.5 130.4 Q 307.5 125.6 309.7 115.1 L 309.7 115.1 L 314.4 90.5 L 327.4 89.2 L 321.2 121.6 L 321.2 121.6 Q 320.1 126.4 320.1 128 L 320.1 128 L 320.1 128 Q 320.1 131.7 322.7 131.8 Z M 343.5 131.8 L 343.5 131.8 L 343.5 131.8 Q 341.5 136.6 335.1 136.6 L 335.1 136.6 L 335.1 136.6 Q 331.9 136.6 329.9 134.4 L 329.9 134.4 L 329.9 134.4 Q 328.2 132.5 328.2 130.4 L 328.2 130.4 L 328.2 130.4 Q 328.2 125.6 330.5 115.1 L 330.5 115.1 L 335.1 90.5 L 348.1 89.2 L 341.9 121.6 L 341.9 121.6 Q 340.8 126.4 340.8 128 L 340.8 128 L 340.8 128 Q 340.8 131.7 343.5 131.8 Z M 374.8 124.5 L 374.8 124.5 L 374.8 124.5 Q 376.4 125.6 376.4 128 L 376.4 128 L 376.4 128 Q 376.4 130.4 375.2 131.9 L 375.2 131.9 L 375.2 131.9 Q 374 133.5 372 134.5 L 372 134.5 L 372 134.5 Q 367.9 136.6 363.5 136.6 L 363.5 136.6 L 363.5 136.6 Q 359.1 136.6 356.5 135.6 L 356.5 135.6 L 356.5 135.6 Q 353.9 134.7 352.2 132.9 L 352.2 132.9 L 352.2 132.9 Q 348.8 129.5 348.8 123.3 L 348.8 123.3 L 348.8 123.3 Q 348.8 113.6 354 107.7 L 354 107.7 L 354 107.7 Q 359.7 101.4 369.4 101.4 L 369.4 101.4 L 369.4 101.4 Q 375.5 101.4 378.5 104 L 378.5 104 L 378.5 104 Q 380.8 105.9 380.8 109 L 380.8 109 L 380.8 109 Q 380.8 120.3 361.3 120.3 L 361.3 120.3 L 361.3 120.3 Q 361.1 121.9 361.1 123.3 L 361.1 123.3 L 361.1 123.3 Q 361.1 126.3 362.4 127.4 L 362.4 127.4 L 362.4 127.4 Q 363.7 128.5 366.1 128.5 L 366.1 128.5 L 366.1 128.5 Q 368.6 128.5 371.1 127.4 L 371.1 127.4 L 371.1 127.4 Q 373.7 126.3 374.8 124.5 Z M 361.8 117.5 L 361.8 117.5 L 361.8 117.5 Q 366.3 117.5 368.9 114.7 L 368.9 114.7 L 368.9 114.7 Q 371.6 112 371.6 107.7 L 371.6 107.7 L 371.6 107.7 Q 371.6 106.3 371 105.5 L 371 105.5 L 371 105.5 Q 370.5 104.7 369.4 104.7 L 369.4 104.7 L 369.4 104.7 Q 368.3 104.7 367.4 105.1 L 367.4 105.1 L 367.4 105.1 Q 366.4 105.5 365.5 106.9 L 365.5 106.9 L 365.5 106.9 Q 363.1 110.1 361.8 117.5 Z M 403 117.3 L 403 117.3 L 403 117.3 Q 405.3 113.2 405.3 109.1 L 405.3 109.1 L 405.3 109.1 Q 405.3 106.3 403.3 106.3 L 403.3 106.3 L 403.3 106.3 Q 401.8 106.3 400.2 108.9 L 400.2 108.9 L 400.2 108.9 Q 398.5 111.6 398 115 L 398 115 L 394.7 135.3 L 381.4 136.6 L 387.9 102.7 L 398.5 101.4 L 397.4 107.9 L 397.4 107.9 Q 400.5 101.4 407.5 101.4 L 407.5 101.4 L 407.5 101.4 Q 411.2 101.4 413.3 103.3 L 413.3 103.3 L 413.3 103.3 Q 415.3 105.2 415.3 109.2 L 415.3 109.2 L 415.3 109.2 Q 415.3 113.1 412.7 115.6 L 412.7 115.6 L 412.7 115.6 Q 410.1 118.1 405.7 118.1 L 405.7 118.1 L 405.7 118.1 Q 403.8 118.1 403 117.3 Z M 436.6 128.1 L 436.6 128.1 L 436.6 128.1 Q 433.3 131.5 427.2 131.5 L 427.2 131.5 L 427.2 131.5 Q 419.6 131.5 418 126 L 418 126 L 418 126 Q 417.5 124.3 417.5 122.5 L 417.5 122.5 L 417.5 122.5 Q 417.5 120.6 417.9 118.7 L 417.9 118.7 L 420.9 102.7 L 433.9 101.4 L 430.4 120 L 430.4 120 Q 430.2 120.9 430.1 121.7 L 430.1 121.7 L 430.1 121.7 Q 429.9 122.6 429.9 123.6 L 429.9 123.6 L 429.9 123.6 Q 429.9 124.5 430.2 125.1 L 430.2 125.1 L 430.2 125.1 Q 430.5 125.7 431 126.1 L 431 126.1 L 431 126.1 Q 431.7 126.6 433.1 126.6 L 433.1 126.6 L 433.1 126.6 Q 434.5 126.6 435.7 124.9 L 435.7 124.9 L 435.7 124.9 Q 436.8 123.3 437.4 120.4 L 437.4 120.4 L 440.9 102.7 L 453.5 101.4 L 448.7 126.5 L 448.7 126.5 Q 446.4 138.8 441.5 143.7 L 441.5 143.7 L 441.5 143.7 Q 439 146.2 435.8 147.2 L 435.8 147.2 L 435.8 147.2 Q 432.6 148.2 428.4 148.2 L 428.4 148.2 L 428.4 148.2 Q 421.7 148.2 417.8 146.1 L 417.8 146.1 L 417.8 146.1 Q 414 144 414 140.4 L 414 140.4 L 414 140.4 Q 414 137.8 416 136.3 L 416 136.3 L 416 136.3 Q 418 134.8 421 134.8 L 421 134.8 L 421 134.8 Q 423.7 134.8 425.8 136 L 425.8 136 L 425.8 136 Q 427 136.7 427.6 137.6 L 427.6 137.6 L 427.6 137.6 Q 426.1 138.8 426.1 140.9 L 426.1 140.9 L 426.1 140.9 Q 426.1 143.8 428.6 143.8 L 428.6 143.8 L 428.6 143.8 Q 432.9 143.8 435.3 134 L 435.3 134 L 435.3 134 Q 436 131.2 436.6 128.1 Z" transform="matrix(1.3,0,0,1.5,-50.4,-106.9)"/></g></g><style/></svg>